<svg width="28" height="40" viewBox="0 0 28 40" fill="none" xmlns="http://www.w3.org/2000/svg">
<g clip-path="url(#clip0_417_1555)">
<path d="M14.0002 19.0413C12.7293 19.0413 11.5106 18.5365 10.6119 17.6379C9.71333 16.7393 9.2085 15.5205 9.2085 14.2497C9.2085 12.9788 9.71333 11.7601 10.6119 10.8615C11.5106 9.96284 12.7293 9.45801 14.0002 9.45801C15.271 9.45801 16.4898 9.96284 17.3884 10.8615C18.287 11.7601 18.7918 12.9788 18.7918 14.2497C18.7918 14.8789 18.6679 15.502 18.4271 16.0834C18.1863 16.6647 17.8333 17.1929 17.3884 17.6379C16.9434 18.0828 16.4152 18.4358 15.8339 18.6766C15.2525 18.9174 14.6294 19.0413 14.0002 19.0413ZM14.0002 0.833008C10.4418 0.833008 7.02926 2.24655 4.51315 4.76266C1.99703 7.27877 0.583496 10.6914 0.583496 14.2497C0.583496 24.3122 14.0002 39.1663 14.0002 39.1663C14.0002 39.1663 27.4168 24.3122 27.4168 14.2497C27.4168 10.6914 26.0033 7.27877 23.4872 4.76266C20.9711 2.24655 17.5585 0.833008 14.0002 0.833008Z" fill="#166DAC"/>
</g>
<defs>
<clipPath id="clip0_417_1555">
<rect width="28" height="40" fill="white"/>
</clipPath>
</defs>
</svg>
