<svg width="32" height="32" viewBox="0 0 32 32" fill="none" xmlns="http://www.w3.org/2000/svg">
<path d="M16 3.2C23.04 3.2 28.8 8.96 28.8 16C28.8 23.04 23.04 28.8 16 28.8C8.96 28.8 3.2 23.04 3.2 16C3.2 8.96 8.96 3.2 16 3.2ZM16 0C7.2 0 0 7.2 0 16C0 24.8 7.2 32 16 32C24.8 32 32 24.8 32 16C32 7.2 24.8 0 16 0ZM20.8 24.32L17.92 19.52C17.28 19.84 16.64 20 16 20C15.36 20 14.56 19.84 14.08 19.52C13.28 20.96 12.16 22.72 11.2 24.32C12.64 25.12 14.24 25.6 16 25.6C17.76 25.6 19.36 25.12 20.8 24.32ZM20.8 7.68L17.92 12.48C19.04 13.12 20 14.4 20 16H25.6C25.6 12.48 23.68 9.28 20.8 7.68ZM16 17.6C16.96 17.6 17.6 16.96 17.6 16C17.6 15.04 16.96 14.4 16 14.4C15.04 14.4 14.4 15.04 14.4 16C14.4 16.96 15.04 17.6 16 17.6ZM6.4 16H12C12 14.56 12.8 13.28 14.08 12.48C13.28 11.04 12.16 9.28 11.2 7.68C8.32 9.28 6.4 12.48 6.4 16Z" fill="#FAFAFA"/>
</svg>
