<svg width="474" height="520" viewBox="0 0 474 520" fill="none" xmlns="http://www.w3.org/2000/svg">
<g clip-path="url(#clip0_272_3849)">
<path d="M329.141 105.497C296.283 100.257 258.866 97.4613 219.897 97.4613C184.234 97.4613 149.875 99.7993 119.125 104.208C119.132 103.736 119.139 103.264 119.16 102.792C119.975 75.4045 131.48 49.4217 151.214 30.3973C170.949 11.3729 197.348 0.816261 224.77 0.98365C252.192 1.15104 278.46 12.0292 297.96 31.2931C317.461 50.5569 328.647 76.6783 329.127 104.074C329.134 104.553 329.141 105.025 329.141 105.497Z" fill="#166DAC"/>
<g opacity="0.1">
<path d="M237.906 0.944604C223.321 -1.02376 208.486 0.09185 194.36 4.21913C180.235 8.34642 167.135 15.3933 155.91 24.903C144.684 34.4127 135.584 46.173 129.199 59.4219C122.813 72.6707 119.285 87.1123 118.843 101.811C118.822 102.283 118.815 102.754 118.808 103.226C127.944 101.916 137.404 100.794 147.116 99.8569C148.304 75.37 158.034 52.0713 174.618 34.0037C191.202 15.9362 213.593 4.23992 237.906 0.944604Z" fill="white"/>
</g>
<path d="M375.08 113.821C359.955 109.724 344.614 106.47 329.127 104.074C303.744 100.144 278.155 97.6868 252.488 96.7149C241.795 96.2783 230.907 96.053 219.897 96.053C211.172 96.053 202.517 96.1938 193.982 96.4755C168.945 97.2146 143.967 99.3234 119.16 102.792C100.797 105.319 82.6126 109.002 64.7146 113.821C22.9834 125.349 0 140.8 0 157.321C0 173.842 22.9834 189.293 64.7146 200.821C94.0625 208.934 130.247 214.462 169.674 216.998C185.947 218.054 202.771 218.589 219.897 218.589C237.08 218.589 253.961 218.047 270.284 216.991C306.165 214.674 339.361 209.878 367.144 202.906C367.292 202.864 367.433 202.828 367.581 202.793C369.456 202.328 371.302 201.843 373.128 201.357C373.783 201.174 374.432 200.997 375.08 200.821C375.117 200.807 375.155 200.795 375.193 200.786C375.813 200.617 376.426 200.441 377.04 200.272C378.266 199.92 379.478 199.575 380.669 199.216C380.726 199.202 380.775 199.188 380.824 199.174C381.86 198.864 382.876 198.554 383.883 198.244C384.708 197.983 385.525 197.73 386.336 197.469C386.928 197.279 387.513 197.089 388.091 196.899C388.514 196.758 388.93 196.624 389.339 196.483C389.895 196.3 390.452 196.11 391.002 195.92C391.234 195.843 391.467 195.765 391.692 195.681C392.221 195.504 392.736 195.321 393.25 195.138C393.807 194.941 394.364 194.737 394.913 194.54C395.372 194.378 395.83 194.209 396.281 194.04C396.661 193.892 397.035 193.751 397.415 193.61C398.451 193.223 399.467 192.821 400.467 192.427C400.968 192.223 401.468 192.026 401.961 191.821C402.448 191.624 402.941 191.42 403.42 191.216C404.21 190.885 404.985 190.554 405.746 190.223C406.113 190.054 406.486 189.892 406.846 189.737C407.121 189.61 407.388 189.49 407.663 189.364C407.861 189.279 408.058 189.188 408.248 189.096C408.96 188.772 409.665 188.441 410.356 188.11C413.006 186.842 415.48 185.547 417.777 184.223C432.19 175.976 439.795 166.828 439.795 157.321C439.795 140.8 416.812 125.349 375.08 113.821ZM374.7 199.469C345.317 207.589 309.034 213.117 269.501 215.631C253.425 216.653 236.806 217.181 219.898 217.181C203.046 217.181 186.483 216.66 170.456 215.638C130.86 213.131 94.5206 207.603 65.0952 199.469C24.0265 188.117 1.4096 173.152 1.4096 157.321C1.41189 155.922 1.58712 154.529 1.93132 153.173C5.52552 138.891 27.6352 125.525 65.0952 115.173C82.8579 110.392 100.903 106.73 119.125 104.208C144.081 100.719 169.21 98.6034 194.398 97.8699C202.799 97.5952 211.299 97.4591 219.898 97.4614C230.759 97.4614 241.5 97.6797 252.057 98.1023C277.874 99.0654 303.613 101.534 329.141 105.497C344.494 107.882 359.704 111.112 374.7 115.173C412.153 125.525 434.255 138.884 437.857 153.159C438.207 154.519 438.384 155.917 438.385 157.321C438.385 173.152 415.769 188.117 374.7 199.469Z" fill="#3F3D56"/>
<path d="M439.393 157.962C439.393 167.37 431.633 176.272 417.777 184.223C415.472 185.547 412.991 186.842 410.355 188.11C409.665 188.441 408.96 188.772 408.248 189.096C408.058 189.187 407.86 189.279 407.663 189.364C407.388 189.49 407.12 189.61 406.845 189.737C406.486 189.892 406.112 190.054 405.746 190.223C404.985 190.554 404.209 190.885 403.42 191.216C402.941 191.42 402.447 191.624 401.961 191.821C401.468 192.025 400.968 192.223 400.467 192.427C399.466 192.821 398.451 193.223 397.415 193.61C397.035 193.751 396.661 193.892 396.28 194.04C395.83 194.209 395.371 194.378 394.913 194.54C394.363 194.737 393.807 194.941 393.25 195.138C392.735 195.321 392.221 195.504 391.692 195.68C391.467 195.765 391.234 195.842 391.002 195.92C390.452 196.11 389.895 196.3 389.338 196.483C388.93 196.624 388.514 196.758 388.091 196.899C387.513 197.089 386.928 197.279 386.336 197.469C385.525 197.73 384.708 197.983 383.883 198.244C382.875 198.554 381.86 198.864 380.824 199.173C380.775 199.188 380.726 199.202 380.669 199.216C379.478 199.575 378.266 199.92 377.039 200.272C376.426 200.441 375.813 200.617 375.193 200.786C375.154 200.795 375.117 200.806 375.08 200.821C374.432 200.997 373.783 201.173 373.128 201.357C371.31 201.835 369.456 202.321 367.581 202.793C367.433 202.828 367.292 202.864 367.144 202.906C340.115 209.652 306.954 214.568 270.255 216.941C254.179 217.976 237.419 218.526 220.201 218.526C202.827 218.526 185.926 217.969 169.723 216.913C72.9958 210.61 1.00781 186.61 1.00781 157.962C1.01543 156.219 1.28135 154.486 1.79693 152.821C1.83926 152.941 1.88158 153.053 1.93114 153.173C11.9883 179.568 83.3637 200.899 175.974 206.103C190.162 206.906 204.857 207.321 219.897 207.321C235.001 207.321 249.753 206.899 263.997 206.096C356.53 200.871 427.835 179.532 437.857 153.159C438.026 152.736 438.174 152.314 438.301 151.891C439.015 153.836 439.385 155.89 439.393 157.962Z" fill="#3F3D56"/>
<path d="M64.6079 150.381C52.8781 150.381 40.4116 147.86 40.4116 143.186C40.4116 138.513 52.8781 135.991 64.6079 135.991C76.3376 135.991 88.8041 138.513 88.8041 143.186C88.8041 147.86 76.3377 150.381 64.6079 150.381ZM64.6079 137.4C51.1793 137.4 41.8212 140.45 41.8212 143.186C41.8212 145.923 51.1793 148.973 64.6079 148.973C78.0364 148.973 87.3945 145.923 87.3945 143.186C87.3945 140.45 78.0364 137.4 64.6079 137.4Z" fill="#3F3D56"/>
<path d="M114.649 183.48C102.919 183.48 90.4526 180.959 90.4526 176.285C90.4526 171.612 102.919 169.09 114.649 169.09C126.379 169.09 138.845 171.612 138.845 176.285C138.845 180.959 126.379 183.48 114.649 183.48ZM114.649 170.499C101.22 170.499 91.8622 173.549 91.8622 176.285C91.8622 179.022 101.22 182.072 114.649 182.072C128.077 182.072 137.436 179.022 137.436 176.285C137.436 173.549 128.077 170.499 114.649 170.499Z" fill="#3F3D56"/>
<path d="M374.72 150.381C362.99 150.381 350.523 147.86 350.523 143.186C350.523 138.513 362.99 135.991 374.72 135.991C386.449 135.991 398.916 138.513 398.916 143.186C398.916 147.86 386.449 150.381 374.72 150.381ZM374.72 137.4C361.291 137.4 351.933 140.45 351.933 143.186C351.933 145.923 361.291 148.973 374.72 148.973C388.148 148.973 397.506 145.923 397.506 143.186C397.506 140.45 388.148 137.4 374.72 137.4Z" fill="#3F3D56"/>
<path d="M324.679 183.48C312.949 183.48 300.483 180.959 300.483 176.285C300.483 171.612 312.949 169.09 324.679 169.09C336.409 169.09 348.875 171.612 348.875 176.285C348.875 180.959 336.409 183.48 324.679 183.48ZM324.679 170.499C311.251 170.499 301.893 173.549 301.893 176.285C301.893 179.022 311.251 182.072 324.679 182.072C338.108 182.072 347.466 179.022 347.466 176.285C347.466 173.549 338.108 170.499 324.679 170.499Z" fill="#3F3D56"/>
<path d="M219.664 198.973C207.934 198.973 195.468 196.452 195.468 191.778C195.468 187.105 207.934 184.583 219.664 184.583C231.394 184.583 243.86 187.105 243.86 191.778C243.86 196.452 231.394 198.973 219.664 198.973ZM219.664 185.992C206.235 185.992 196.877 189.042 196.877 191.778C196.877 194.515 206.235 197.565 219.664 197.565C233.092 197.565 242.451 194.515 242.451 191.778C242.451 189.042 233.092 185.992 219.664 185.992Z" fill="#3F3D56"/>
<path d="M237.501 346.986C253.855 346.986 267.112 333.74 267.112 317.4C267.112 301.06 253.855 287.813 237.501 287.813C221.148 287.813 207.891 301.06 207.891 317.4C207.891 333.74 221.148 346.986 237.501 346.986Z" fill="#2F2E41"/>
<path d="M226.242 336.838L211.831 344.049L215.859 352.086L230.27 344.875L226.242 336.838Z" fill="#2F2E41"/>
<path d="M217.759 351.27C218.614 349.975 216.505 347.079 213.048 344.802C209.592 342.525 206.097 341.729 205.243 343.024C204.388 344.319 206.497 347.215 209.954 349.492C213.41 351.769 216.905 352.565 217.759 351.27Z" fill="#2F2E41"/>
<path d="M248.761 336.839L244.733 344.875L259.144 352.086L263.172 344.05L248.761 336.839Z" fill="#2F2E41"/>
<path d="M265.051 349.493C268.507 347.216 270.617 344.32 269.762 343.025C268.907 341.729 265.412 342.526 261.956 344.803C258.5 347.08 256.391 349.976 257.245 351.271C258.1 352.566 261.595 351.77 265.051 349.493Z" fill="#2F2E41"/>
<path d="M235.429 320.275C241.018 320.275 245.549 315.748 245.549 310.163C245.549 304.578 241.018 300.051 235.429 300.051C229.839 300.051 225.309 304.578 225.309 310.163C225.309 315.748 229.839 320.275 235.429 320.275Z" fill="white"/>
<path d="M237.891 308.224C239.203 306.914 239.195 304.781 237.874 303.461C236.553 302.141 234.418 302.133 233.106 303.444C231.794 304.755 231.802 306.888 233.123 308.208C234.444 309.528 236.579 309.535 237.891 308.224Z" fill="#3F3D56"/>
<path d="M260.86 285.213C261.305 274.26 251.857 264.982 239.758 264.491C227.658 264 217.488 272.481 217.043 283.435C216.597 294.388 225.008 296.877 237.108 297.368C249.208 297.859 260.415 296.167 260.86 285.213Z" fill="#166DAC"/>
<path d="M277.928 332.892C279.876 331.222 277.137 324.842 271.811 318.643C266.485 312.444 260.588 308.773 258.641 310.443C256.693 312.114 259.432 318.494 264.758 324.693C270.084 330.892 275.98 334.563 277.928 332.892Z" fill="#2F2E41"/>
<path d="M210.328 324.693C215.654 318.494 218.393 312.114 216.445 310.443C214.498 308.773 208.601 312.444 203.275 318.643C197.949 324.842 195.21 331.222 197.158 332.892C199.106 334.563 205.002 330.892 210.328 324.693Z" fill="#2F2E41"/>
<path d="M245.635 329.06C245.955 330.819 245.563 332.633 244.545 334.103C243.527 335.573 241.966 336.579 240.205 336.899C238.445 337.22 236.629 336.828 235.158 335.811C233.687 334.793 232.68 333.233 232.359 331.474L232.357 331.461C231.693 327.798 234.528 326.502 238.195 325.838C241.861 325.175 244.971 325.396 245.635 329.06Z" fill="white"/>
<path d="M187.476 348.872C187.103 348.872 186.744 348.723 186.48 348.459C186.215 348.195 186.067 347.837 186.067 347.463V264.364C186.067 263.99 186.215 263.632 186.48 263.368C186.744 263.104 187.103 262.956 187.476 262.956C187.85 262.956 188.209 263.104 188.473 263.368C188.738 263.632 188.886 263.99 188.886 264.364V347.463C188.886 347.837 188.738 348.195 188.473 348.459C188.209 348.723 187.85 348.872 187.476 348.872Z" fill="#CCCCCC"/>
<path d="M166.333 423.52C165.959 423.52 165.601 423.372 165.336 423.108C165.072 422.844 164.923 422.486 164.923 422.112V361.548C164.923 361.175 165.072 360.816 165.336 360.552C165.601 360.288 165.959 360.14 166.333 360.14C166.707 360.14 167.065 360.288 167.33 360.552C167.594 360.816 167.743 361.175 167.743 361.548V422.112C167.743 422.486 167.594 422.844 167.33 423.108C167.065 423.372 166.707 423.52 166.333 423.52Z" fill="#CCCCCC"/>
<path d="M220.602 373.52C220.229 373.52 219.87 373.371 219.606 373.107C219.341 372.843 219.193 372.485 219.193 372.111V289.012C219.193 288.638 219.341 288.28 219.606 288.016C219.87 287.752 220.229 287.604 220.602 287.604C220.976 287.604 221.335 287.752 221.599 288.016C221.864 288.28 222.012 288.638 222.012 289.012V372.111C222.012 372.485 221.864 372.843 221.599 373.107C221.335 373.371 220.976 373.52 220.602 373.52Z" fill="#CCCCCC"/>
<path d="M200.163 433.38C199.789 433.38 199.431 433.231 199.166 432.967C198.902 432.703 198.753 432.345 198.753 431.971V398.168C198.753 397.795 198.902 397.436 199.166 397.172C199.431 396.908 199.789 396.76 200.163 396.76C200.537 396.76 200.895 396.908 201.16 397.172C201.424 397.436 201.573 397.795 201.573 398.168V431.971C201.573 432.345 201.424 432.703 201.16 432.967C200.895 433.231 200.537 433.38 200.163 433.38Z" fill="#CCCCCC"/>
<path d="M229.06 260.139C228.686 260.139 228.328 259.99 228.063 259.726C227.799 259.462 227.65 259.104 227.65 258.73V224.927C227.65 224.554 227.799 224.195 228.063 223.931C228.328 223.667 228.686 223.519 229.06 223.519C229.434 223.519 229.792 223.667 230.057 223.931C230.321 224.195 230.47 224.554 230.47 224.927V258.73C230.47 259.104 230.321 259.462 230.057 259.726C229.792 259.99 229.434 260.139 229.06 260.139Z" fill="#CCCCCC"/>
<path d="M158.58 274.928C158.206 274.928 157.848 274.779 157.583 274.515C157.319 274.251 157.17 273.893 157.17 273.519V239.716C157.17 239.343 157.319 238.984 157.583 238.72C157.848 238.456 158.206 238.308 158.58 238.308C158.954 238.308 159.312 238.456 159.577 238.72C159.841 238.984 159.99 239.343 159.99 239.716V273.519C159.99 273.893 159.841 274.251 159.577 274.515C159.312 274.779 158.954 274.928 158.58 274.928Z" fill="#CCCCCC"/>
<path d="M281.215 278.449C280.841 278.449 280.483 278.3 280.219 278.036C279.954 277.772 279.806 277.414 279.806 277.04V243.237C279.806 242.864 279.954 242.505 280.219 242.241C280.483 241.977 280.841 241.829 281.215 241.829C281.589 241.829 281.948 241.977 282.212 242.241C282.476 242.505 282.625 242.864 282.625 243.237V277.04C282.625 277.414 282.476 277.772 282.212 278.036C281.948 278.3 281.589 278.449 281.215 278.449Z" fill="#CCCCCC"/>
<path d="M278.396 384.083C278.022 384.083 277.664 383.935 277.399 383.671C277.135 383.407 276.986 383.048 276.986 382.675V341.829C276.986 341.456 277.135 341.098 277.399 340.833C277.664 340.569 278.022 340.421 278.396 340.421C278.77 340.421 279.128 340.569 279.393 340.833C279.657 341.098 279.806 341.456 279.806 341.829V382.675C279.806 383.048 279.657 383.407 279.393 383.671C279.128 383.935 278.77 384.083 278.396 384.083Z" fill="#CCCCCC"/>
<path d="M250.204 419.999C249.83 419.999 249.472 419.851 249.207 419.587C248.943 419.323 248.794 418.965 248.794 418.591V358.027C248.794 357.654 248.943 357.295 249.207 357.031C249.472 356.767 249.83 356.619 250.204 356.619C250.578 356.619 250.936 356.767 251.201 357.031C251.465 357.295 251.614 357.654 251.614 358.027V418.591C251.614 418.965 251.465 419.323 251.201 419.587C250.936 419.851 250.578 419.999 250.204 419.999Z" fill="#CCCCCC"/>
<path d="M255.842 316.477C255.468 316.477 255.11 316.329 254.845 316.065C254.581 315.801 254.433 315.442 254.433 315.069V231.969C254.433 231.596 254.581 231.238 254.845 230.974C255.11 230.709 255.468 230.561 255.842 230.561C256.216 230.561 256.575 230.709 256.839 230.974C257.103 231.238 257.252 231.596 257.252 231.969V315.069C257.252 315.442 257.103 315.801 256.839 316.065C256.575 316.329 256.216 316.477 255.842 316.477Z" fill="#CCCCCC"/>
<path d="M428.655 493.307C430.672 491.619 427.946 485.045 422.565 478.624C417.184 472.202 411.186 468.365 409.169 470.053C407.151 471.741 409.878 478.315 415.259 484.736C420.64 491.158 426.637 494.995 428.655 493.307Z" fill="#2F2E41"/>
<path d="M415.423 486.005C420.724 470.114 412.129 452.938 396.225 447.641C380.321 442.344 363.131 450.932 357.83 466.823C352.529 482.714 361.124 499.89 377.028 505.187C392.931 510.484 410.121 501.896 415.423 486.005Z" fill="#2F2E41"/>
<path d="M399.474 500.217H390.252V516.725H399.474V500.217Z" fill="#2F2E41"/>
<path d="M381.031 500.217H371.81V516.725H381.031V500.217Z" fill="#2F2E41"/>
<path d="M391.79 519.796C396.034 519.796 399.474 518.507 399.474 516.917C399.474 515.327 396.034 514.038 391.79 514.038C387.545 514.038 384.105 515.327 384.105 516.917C384.105 518.507 387.545 519.796 391.79 519.796Z" fill="#2F2E41"/>
<path d="M373.346 519.413C377.59 519.413 381.031 518.123 381.031 516.533C381.031 514.943 377.59 513.654 373.346 513.654C369.102 513.654 365.662 514.943 365.662 516.533C365.662 518.123 369.102 519.413 373.346 519.413Z" fill="#2F2E41"/>
<path d="M377.095 438.289C379.806 427.383 391.77 420.964 403.818 423.954C415.866 426.943 423.435 438.207 420.725 449.114C418.014 460.02 409.022 460.056 396.974 457.066C384.926 454.077 374.385 449.196 377.095 438.289Z" fill="#CCCCCC"/>
<path d="M366.151 468.84C367.279 466.464 362.053 461.629 354.48 458.04C346.906 454.451 339.853 453.467 338.725 455.843C337.598 458.218 342.823 463.054 350.396 466.643C357.97 470.232 365.023 471.215 366.151 468.84Z" fill="#2F2E41"/>
<path d="M382.089 480.126C387.678 480.126 392.209 475.599 392.209 470.014C392.209 464.43 387.678 459.902 382.089 459.902C376.5 459.902 371.969 464.43 371.969 470.014C371.969 475.599 376.5 480.126 382.089 480.126Z" fill="white"/>
<path d="M377.929 469.76C379.792 469.76 381.302 468.251 381.302 466.39C381.302 464.528 379.792 463.019 377.929 463.019C376.066 463.019 374.556 464.528 374.556 466.39C374.556 468.251 376.066 469.76 377.929 469.76Z" fill="#3F3D56"/>
<path d="M382.001 495.352C384.337 495.352 386.23 493.46 386.23 491.127C386.23 488.793 384.337 486.901 382.001 486.901C379.666 486.901 377.772 488.793 377.772 491.127C377.772 493.46 379.666 495.352 382.001 495.352Z" fill="white"/>
<path d="M473.295 520H306.962C306.775 520 306.596 519.926 306.464 519.794C306.332 519.662 306.257 519.483 306.257 519.296C306.257 519.109 306.332 518.93 306.464 518.798C306.596 518.666 306.775 518.592 306.962 518.592H473.295C473.482 518.592 473.661 518.666 473.793 518.798C473.925 518.93 474 519.109 474 519.296C474 519.483 473.925 519.662 473.793 519.794C473.661 519.926 473.482 520 473.295 520Z" fill="#3F3D56"/>
</g>
<defs>
<clipPath id="clip0_272_3849">
<rect width="474" height="520" fill="white"/>
</clipPath>
</defs>
</svg>
