<svg width="292" height="61" viewBox="0 0 292 61" fill="none" xmlns="http://www.w3.org/2000/svg">
<path d="M32.572 17.2398C36.3559 17.2398 39.4234 14.1723 39.4234 10.3884C39.4234 6.60456 36.3559 3.53711 32.572 3.53711C28.7882 3.53711 25.7207 6.60456 25.7207 10.3884C25.7207 14.1723 28.7882 17.2398 32.572 17.2398Z" fill="url(#paint0_linear_2007_1888)"/>
<path d="M32.4624 16.6864C36.1242 16.6864 39.0927 13.7179 39.0927 10.0561C39.0927 6.39428 36.1242 3.42578 32.4624 3.42578C28.8005 3.42578 25.832 6.39428 25.832 10.0561C25.832 13.7179 28.8005 16.6864 32.4624 16.6864Z" fill="url(#paint1_linear_2007_1888)"/>
<path d="M17.9865 8.39841C17.634 10.8342 17.7844 13.3164 18.4285 15.6918C19.7545 20.554 22.9592 24.4217 27.6004 27.5158C31.3794 29.9113 35.3751 31.9462 39.535 33.5936C46.3864 36.5773 49.4805 38.8979 50.4751 41.329C52.4641 46.7438 46.4969 52.7111 47.8229 53.7056C49.149 54.7002 53.3482 51.827 55.5583 48.0699L55.8898 47.6278C55.9501 47.4491 55.9872 47.2634 56.0003 47.0753C55.9924 44.0022 54.9838 41.0153 53.1272 38.5664C50.4751 35.1407 46.3864 33.0411 42.2977 31.494C38.1194 30.0767 34.086 28.2636 30.2526 26.0793C24.3958 22.4326 20.5281 17.4599 19.9756 10.8295C19.7031 6.91591 20.9276 3.04493 23.4012 0L22.2962 0.331515C21.9386 0.411451 21.6006 0.561708 21.3016 0.773538C19.644 1.65758 18.539 5.63578 18.539 5.63578C18.539 5.63578 18.2075 7.29336 17.9865 8.39841Z" fill="url(#paint2_linear_2007_1888)"/>
<path d="M16.2208 12.0445C16.5523 18.7853 20.199 24.0896 26.0557 28.0678C29.8607 30.4857 33.8953 32.5215 38.1008 34.1456C42.1895 35.9136 46.2782 38.1237 48.9304 41.8809C51.5825 45.6381 51.251 49.5058 50.5879 53.1525L51.3615 52.6C52.8337 51.3716 53.8784 49.7079 54.3451 47.8482C54.3521 47.7631 54.3917 47.6839 54.4556 47.6272C54.4562 44.5704 53.4892 41.5918 51.693 39.1183C48.9304 35.5821 44.8417 33.593 40.753 32.0459C36.5747 30.6287 32.5413 28.8155 28.7079 26.6312C22.8511 22.9845 18.9834 17.9013 18.4309 11.3814C18.4309 11.3814 17.7678 5.08263 21.8565 0.441406L20.42 0.993933H20.3095C15.7787 5.52465 16.2208 12.0445 16.2208 12.0445Z" fill="url(#paint3_linear_2007_1888)"/>
<path d="M33.7882 51.1639C31.6021 48.4331 28.8499 46.2088 25.7214 44.6441C22.5874 43.0362 19.5606 41.2275 16.6599 39.2293C9.25604 33.5935 7.37745 24.7531 7.15644 23.7585C6.25568 18.6113 6.86994 13.3133 8.92453 8.50879C4.62856 12.9229 1.72125 18.4998 0.562414 24.5493C-0.596418 30.5987 0.0441062 36.8553 2.40471 42.5445C5.24915 48.7882 10.068 53.9232 16.1186 57.1582C22.1692 60.3932 29.1158 61.5486 35.8878 60.4463C36.2678 58.8414 36.2762 57.1708 35.9124 55.5621C35.5485 53.9534 34.822 52.4491 33.7882 51.1639Z" fill="url(#paint4_linear_2007_1888)"/>
<path d="M51.1389 52.821C51.7067 52.3038 52.158 51.6718 52.4628 50.9669C52.7677 50.2619 52.9191 49.5002 52.907 48.7323C52.7942 46.0875 51.9529 43.5252 50.4758 41.3284C47.8237 37.5712 43.735 35.3611 39.5358 33.593C35.3759 31.9456 31.3802 29.9107 27.6012 27.5152C21.7444 23.537 18.0978 18.2328 17.7662 11.4919C17.7662 11.4919 17.3242 4.97213 21.8549 0.441406C20.9371 0.674793 20.0478 1.00831 19.2028 1.43595C16.2095 2.70484 13.4464 4.45974 11.0254 6.62971C10.4877 7.11604 10.0714 7.72158 9.80984 8.3978C7.52742 13.5294 7.0496 19.2826 8.45421 24.7205C9.85882 30.1583 13.0631 34.9604 17.5452 38.3448C20.3079 40.5549 23.5125 41.9914 26.4962 43.7595C29.4798 45.5276 32.574 47.4062 34.6736 50.2793C35.8866 51.7919 36.7201 53.5727 37.1047 55.4731C37.3871 57.0073 37.3871 58.5801 37.1047 60.1143L43.514 57.4622C46.2779 56.3139 48.8494 54.7486 51.1389 52.821Z" fill="url(#paint5_linear_2007_1888)"/>
<path d="M32.351 16.4657C36.0129 16.4657 38.9814 13.4972 38.9814 9.8354C38.9814 6.17358 36.0129 3.20508 32.351 3.20508C28.6892 3.20508 25.7207 6.17358 25.7207 9.8354C25.7207 13.4972 28.6892 16.4657 32.351 16.4657Z" fill="url(#paint6_linear_2007_1888)"/>
<path d="M291.803 21.9648V24.6177H287.052V38.8469H284.279V24.6177H279.503V21.9648H291.803Z" fill="#FAFAFA"/>
<path d="M277.225 38.8469L276.043 35.4464H268.857L267.675 38.8469H264.66L270.786 21.9648H274.114L280.216 38.8469H277.225ZM269.773 32.8417H275.127L272.45 25.2207L269.773 32.8417Z" fill="#FAFAFA"/>
<path d="M259.92 21.9648C261.512 21.9648 262.838 22.4954 263.899 23.5566C264.977 24.6177 265.515 25.9361 265.515 27.5118C265.515 29.0714 264.977 30.3898 263.899 31.467C262.838 32.5282 261.512 33.0588 259.92 33.0588H256.471V38.8469H253.698V21.9648H259.92ZM259.92 30.4541C260.74 30.4541 261.415 30.1808 261.946 29.6341C262.476 29.0714 262.742 28.3639 262.742 27.5118C262.742 26.6597 262.476 25.9603 261.946 25.4136C261.415 24.8509 260.74 24.5695 259.92 24.5695H256.471V30.4541H259.92Z" fill="#FAFAFA"/>
<path d="M248.892 38.8469L247.71 35.4464H240.524L239.342 38.8469H236.327L242.453 21.9648H245.781L251.883 38.8469H248.892ZM241.44 32.8417H246.794L244.117 25.2207L241.44 32.8417Z" fill="#FAFAFA"/>
<path d="M234.512 21.9648V38.8469H231.738V24.6177H224.865V38.8469H222.091V21.9648H234.512Z" fill="#FAFAFA"/>
<path d="M218.708 21.9648V38.8469H215.935V24.6177H209.062V38.8469H206.288V21.9648H218.708Z" fill="#FAFAFA"/>
<path d="M201.482 38.8469L200.3 35.4464H193.113L191.932 38.8469H188.917L195.043 21.9648H198.371L204.473 38.8469H201.482ZM194.03 32.8417H199.384L196.707 25.2207L194.03 32.8417Z" fill="#FAFAFA"/>
<path d="M187.118 21.9648V38.8469H184.345V26.8124L179.208 35.3017H178.87L173.733 26.7883V38.8469H170.96V21.9648H173.95L179.039 30.4059L184.152 21.9648H187.118Z" fill="#FAFAFA"/>
<path d="M164.815 38.8469V27.3912L156.856 38.8469H154.686V21.9648H157.459V33.4205L165.418 21.9648H167.588V38.8469H164.815Z" fill="#FAFAFA"/>
<path d="M152.645 38.8469H149.486L145.772 32.7452L142.058 38.8469H138.898L144.204 30.1647L139.212 21.9648H142.347L145.772 27.5841L149.196 21.9648H152.356L147.364 30.1647L152.645 38.8469Z" fill="#FAFAFA"/>
<path d="M122.387 38.8469V36.2905C123.448 36.4352 124.236 36.1779 124.751 35.5187C125.281 34.8595 125.547 33.5974 125.547 31.7323V21.9648H136.858V38.8469H134.084V24.6177H128.32V31.6841C128.32 33.1633 128.159 34.4093 127.838 35.4222C127.532 36.4352 127.09 37.1989 126.511 37.7134C125.932 38.2118 125.305 38.5494 124.63 38.7263C123.971 38.8871 123.223 38.9273 122.387 38.8469Z" fill="#FAFAFA"/>
<path d="M118.838 38.8469L117.656 35.4464H110.469L109.288 38.8469H106.273L112.399 21.9648H115.727L121.829 38.8469H118.838ZM111.386 32.8417H116.74L114.063 25.2207L111.386 32.8417Z" fill="#FAFAFA"/>
<path d="M101.533 21.9648C103.125 21.9648 104.451 22.4954 105.513 23.5566C106.59 24.6177 107.128 25.9361 107.128 27.5118C107.128 29.0714 106.59 30.3898 105.513 31.467C104.451 32.5282 103.125 33.0588 101.533 33.0588H98.0845V38.8469H95.311V21.9648H101.533ZM101.533 30.4541C102.353 30.4541 103.029 30.1808 103.559 29.6341C104.09 29.0714 104.355 28.3639 104.355 27.5118C104.355 26.6597 104.09 25.9603 103.559 25.4136C103.029 24.8509 102.353 24.5695 101.533 24.5695H98.0845V30.4541H101.533Z" fill="#FAFAFA"/>
<path d="M90.5879 21.9648H93.3855L88.1521 34.5058C86.8658 37.5767 84.7837 39.0237 81.9057 38.8469V36.2663C82.8544 36.3628 83.6181 36.2181 84.1969 35.8322C84.7918 35.4464 85.2661 34.8032 85.6198 33.9029L80.0005 21.9648H82.7981L86.898 30.8641L90.5879 21.9648Z" fill="#FAFAFA"/>
<defs>
<linearGradient id="paint0_linear_2007_1888" x1="27.5772" y1="15.3722" x2="37.2464" y2="5.71407" gradientUnits="userSpaceOnUse">
<stop stop-color="#E11F74"/>
<stop offset="1" stop-color="#EF7EC0"/>
</linearGradient>
<linearGradient id="paint1_linear_2007_1888" x1="27.6443" y1="14.9294" x2="37.0152" y2="5.54749" gradientUnits="userSpaceOnUse">
<stop stop-color="#860043"/>
<stop offset="1" stop-color="#EF7EC0"/>
</linearGradient>
<linearGradient id="paint2_linear_2007_1888" x1="25.7225" y1="3.80871" x2="50.8786" y2="61.6638" gradientUnits="userSpaceOnUse">
<stop stop-color="#E11F74"/>
<stop offset="1" stop-color="#EF7EC0"/>
</linearGradient>
<linearGradient id="paint3_linear_2007_1888" x1="24.1823" y1="4.33422" x2="49.4309" y2="62.4021" gradientUnits="userSpaceOnUse">
<stop stop-color="#860043"/>
<stop offset="1" stop-color="#EF7EC0"/>
</linearGradient>
<linearGradient id="paint4_linear_2007_1888" x1="-4.15239" y1="26.3058" x2="39.2071" y2="43.3855" gradientUnits="userSpaceOnUse">
<stop stop-color="#073E98"/>
<stop offset="0.16" stop-color="#09439A"/>
<stop offset="0.36" stop-color="#0D52A0"/>
<stop offset="0.57" stop-color="#156BAB"/>
<stop offset="0.8" stop-color="#1F8EB9"/>
<stop offset="1" stop-color="#2AB2C8"/>
</linearGradient>
<linearGradient id="paint5_linear_2007_1888" x1="3.83309" y1="20.0862" x2="55.3497" y2="40.3792" gradientUnits="userSpaceOnUse">
<stop stop-color="#073E98"/>
<stop offset="0.17" stop-color="#08439A"/>
<stop offset="0.36" stop-color="#0D51A0"/>
<stop offset="0.56" stop-color="#1467A9"/>
<stop offset="0.78" stop-color="#1D88B6"/>
<stop offset="0.99" stop-color="#2AB0C7"/>
<stop offset="1" stop-color="#2AB2C8"/>
</linearGradient>
<linearGradient id="paint6_linear_2007_1888" x1="27.4225" y1="14.7087" x2="36.8044" y2="5.32678" gradientUnits="userSpaceOnUse">
<stop stop-color="#073E98"/>
<stop offset="0.17" stop-color="#08439A"/>
<stop offset="0.36" stop-color="#0D51A0"/>
<stop offset="0.56" stop-color="#1467A9"/>
<stop offset="0.78" stop-color="#1D88B6"/>
<stop offset="0.99" stop-color="#2AB0C7"/>
<stop offset="1" stop-color="#2AB2C8"/>
</linearGradient>
</defs>
</svg>
