<svg width="66" height="72" viewBox="0 0 66 72" fill="none" xmlns="http://www.w3.org/2000/svg">
<path d="M38.2266 20.9561C42.5511 20.9561 46.0567 17.4051 46.0567 13.0248C46.0567 8.64446 42.5511 5.09351 38.2266 5.09351C33.9021 5.09351 30.3965 8.64446 30.3965 13.0248C30.3965 17.4051 33.9021 20.9561 38.2266 20.9561Z" fill="url(#paint0_linear_2005_2100)"/>
<path d="M38.099 20.3164C42.284 20.3164 45.6766 16.88 45.6766 12.641C45.6766 8.40198 42.284 4.96558 38.099 4.96558C33.9141 4.96558 30.5215 8.40198 30.5215 12.641C30.5215 16.88 33.9141 20.3164 38.099 20.3164Z" fill="url(#paint1_linear_2005_2100)"/>
<path d="M21.5555 10.7222C21.1526 13.5419 21.3246 16.4154 22.0606 19.1652C23.5761 24.7938 27.2386 29.2711 32.5429 32.853C36.8617 35.6261 41.4283 37.9817 46.1825 39.8888C54.0126 43.3428 57.5488 46.0292 58.6854 48.8435C60.9587 55.1117 54.1389 62.0196 55.6544 63.1709C57.1699 64.3223 61.969 60.9962 64.4948 56.6468L64.8737 56.1351C64.9426 55.9283 64.985 55.7133 65 55.4955C64.9909 51.938 63.8383 48.4803 61.7164 45.6454C58.6854 41.6798 54.0126 39.2492 49.3398 37.4583C44.5646 35.8176 39.955 33.7186 35.5739 31.19C28.8804 26.9685 24.4602 21.212 23.8287 13.5365C23.5173 9.00603 24.9167 4.52489 27.7438 1L26.4809 1.38377C26.0722 1.47631 25.6859 1.65025 25.3442 1.89547C23.4499 2.91886 22.1869 7.52411 22.1869 7.52411C22.1869 7.52411 21.8081 9.44297 21.5555 10.7222Z" fill="url(#paint2_linear_2005_2100)"/>
<path d="M19.5352 14.9437C19.9141 22.7471 24.0817 28.8874 30.7752 33.4927C35.1237 36.2917 39.7348 38.6484 44.5411 40.5285C49.2139 42.5752 53.8867 45.1337 56.9177 49.4831C59.9487 53.8325 59.5698 58.3099 58.8121 62.5313L59.6961 61.8917C61.3787 60.4698 62.5726 58.5438 63.106 56.391C63.114 56.2924 63.1592 56.2008 63.2323 56.1352C63.233 52.5965 62.1278 49.1484 60.075 46.285C56.9177 42.1915 52.2449 39.8888 47.5721 38.0979C42.7969 36.4572 38.1873 34.3583 33.8062 31.8296C27.1127 27.6082 22.6925 21.7237 22.061 14.1762C22.061 14.1762 21.3033 6.88452 25.9761 1.51172L24.3343 2.15134H24.208C19.03 7.39621 19.5352 14.9437 19.5352 14.9437Z" fill="url(#paint3_linear_2005_2100)"/>
<path d="M39.6152 60.2287C37.1168 57.0675 33.9714 54.4925 30.3959 52.6812C26.8142 50.8198 23.3551 48.7261 20.0399 46.4129C11.5784 39.8888 9.4314 29.6549 9.17881 28.5036C8.14936 22.5451 8.85138 16.4119 11.1995 10.8501C6.2898 15.9599 2.96714 22.4159 1.64276 29.4189C0.318377 36.422 1.05041 43.6647 3.74825 50.2506C6.99904 57.4785 12.5063 63.423 19.4213 67.1679C26.3364 70.9128 34.2753 72.2503 42.0148 70.9743C42.4491 69.1163 42.4587 67.1824 42.0428 65.3202C41.6269 63.4579 40.7966 61.7164 39.6152 60.2287Z" fill="url(#paint4_linear_2005_2100)"/>
<path d="M59.4437 62.1476C60.0926 61.5489 60.6084 60.8173 60.9568 60.0012C61.3052 59.1852 61.4782 58.3034 61.4644 57.4144C61.3355 54.3527 60.374 51.3866 58.6859 48.8435C55.6549 44.4941 50.9821 41.9356 46.183 39.8888C41.4289 37.9817 36.8622 35.6261 32.5434 32.853C25.85 28.2478 21.6823 22.1074 21.3034 14.3041C21.3034 14.3041 20.7983 6.75659 25.9762 1.51172C24.9273 1.78189 23.9109 2.16798 22.9452 2.66303C19.5243 4.13193 16.3665 6.16345 13.5996 8.67545C12.9851 9.23843 12.5093 9.93943 12.2104 10.7222C9.60189 16.6627 9.05581 23.3228 10.6611 29.6178C12.2664 35.9127 15.9284 41.4718 21.0508 45.3896C24.2082 47.948 27.8706 49.6111 31.2805 51.6578C34.6904 53.7046 38.2266 55.8793 40.6261 59.2053C42.0124 60.9563 42.9651 63.0178 43.4046 65.2177C43.7273 66.9938 43.7273 68.8145 43.4046 70.5905L50.7295 67.5204C53.8882 66.191 56.8271 64.3791 59.4437 62.1476Z" fill="url(#paint5_linear_2005_2100)"/>
<path d="M37.974 20.0606C42.159 20.0606 45.5516 16.6242 45.5516 12.3851C45.5516 8.14612 42.159 4.70972 37.974 4.70972C33.7891 4.70972 30.3965 8.14612 30.3965 12.3851C30.3965 16.6242 33.7891 20.0606 37.974 20.0606Z" fill="url(#paint6_linear_2005_2100)"/>
<defs>
<linearGradient id="paint0_linear_2005_2100" x1="32.5182" y1="18.7941" x2="43.7104" y2="7.75727" gradientUnits="userSpaceOnUse">
<stop stop-color="#E11F74"/>
<stop offset="1" stop-color="#EF7EC0"/>
</linearGradient>
<linearGradient id="paint1_linear_2005_2100" x1="32.5927" y1="18.2824" x2="43.4399" y2="7.56095" gradientUnits="userSpaceOnUse">
<stop stop-color="#860043"/>
<stop offset="1" stop-color="#EF7EC0"/>
</linearGradient>
<linearGradient id="paint2_linear_2005_2100" x1="30.3967" y1="5.40905" x2="59.7727" y2="72.1077" gradientUnits="userSpaceOnUse">
<stop stop-color="#E11F74"/>
<stop offset="1" stop-color="#EF7EC0"/>
</linearGradient>
<linearGradient id="paint3_linear_2005_2100" x1="28.6341" y1="6.01814" x2="58.1182" y2="72.9621" gradientUnits="userSpaceOnUse">
<stop stop-color="#860043"/>
<stop offset="1" stop-color="#EF7EC0"/>
</linearGradient>
<linearGradient id="paint4_linear_2005_2100" x1="-3.7456" y1="31.4523" x2="45.9775" y2="50.789" gradientUnits="userSpaceOnUse">
<stop stop-color="#073E98"/>
<stop offset="0.16" stop-color="#09439A"/>
<stop offset="0.36" stop-color="#0D52A0"/>
<stop offset="0.57" stop-color="#156BAB"/>
<stop offset="0.8" stop-color="#1F8EB9"/>
<stop offset="1" stop-color="#2AB2C8"/>
</linearGradient>
<linearGradient id="paint5_linear_2005_2100" x1="5.37979" y1="24.2531" x2="64.4573" y2="47.2275" gradientUnits="userSpaceOnUse">
<stop stop-color="#073E98"/>
<stop offset="0.17" stop-color="#08439A"/>
<stop offset="0.36" stop-color="#0D51A0"/>
<stop offset="0.56" stop-color="#1467A9"/>
<stop offset="0.78" stop-color="#1D88B6"/>
<stop offset="0.99" stop-color="#2AB0C7"/>
<stop offset="1" stop-color="#2AB2C8"/>
</linearGradient>
<linearGradient id="paint6_linear_2005_2100" x1="32.3414" y1="18.0266" x2="43.2012" y2="7.30525" gradientUnits="userSpaceOnUse">
<stop stop-color="#073E98"/>
<stop offset="0.17" stop-color="#08439A"/>
<stop offset="0.36" stop-color="#0D51A0"/>
<stop offset="0.56" stop-color="#1467A9"/>
<stop offset="0.78" stop-color="#1D88B6"/>
<stop offset="0.99" stop-color="#2AB0C7"/>
<stop offset="1" stop-color="#2AB2C8"/>
</linearGradient>
</defs>
</svg>
