<svg width="458" height="488" viewBox="0 0 458 488" fill="none" xmlns="http://www.w3.org/2000/svg">
<path d="M310.901 67.3498C313.784 86.8833 312.553 106.789 307.286 125.838C296.44 164.83 270.231 195.846 232.272 220.659C201.365 239.869 168.685 256.188 134.663 269.399C78.629 293.326 53.3231 311.936 45.1891 331.432C28.921 374.855 77.7252 422.709 66.8798 430.684C56.0344 438.66 21.6908 415.619 3.61517 385.489L0.903794 381.944C0.410964 380.511 0.107249 379.022 2.58844e-05 377.513C0.0650253 352.869 8.31372 328.916 23.4983 309.278C45.1891 281.806 78.629 264.968 112.069 252.562C146.241 241.196 179.229 226.656 210.581 209.139C258.481 179.895 290.114 140.017 294.633 86.8458C296.861 55.4612 286.847 24.4184 266.616 0L275.653 2.65854C278.578 3.29957 281.343 4.50453 283.787 6.20327C297.344 13.2927 306.382 45.1953 306.382 45.1953C306.382 45.1953 309.093 58.488 310.901 67.3498Z" fill="#0D4168"/>
<path d="M325.361 96.594C322.65 150.651 292.825 193.188 244.925 225.09C213.805 244.48 180.808 260.807 146.412 273.83C112.973 288.009 79.5326 305.733 57.8419 335.863C36.1511 365.993 38.8624 397.01 44.2851 426.254L37.9587 421.823C25.9179 411.972 17.3742 398.63 13.5566 383.717C13.4995 383.034 13.1757 382.399 12.6528 381.945C12.6478 357.431 20.5571 333.544 35.2473 313.709C57.8418 285.351 91.2818 269.4 124.722 256.993C158.894 245.627 191.881 231.087 223.234 213.57C271.134 184.326 302.767 143.562 307.286 91.2769C307.286 91.2769 312.708 40.7646 279.268 3.54492L291.017 7.97583H291.921C328.976 44.3093 325.361 96.594 325.361 96.594Z" fill="#0D4168"/>
<path d="M181.658 410.303C199.538 388.404 222.047 370.566 247.634 358.018C273.266 345.124 298.021 330.62 321.745 314.595C382.298 269.4 397.662 198.506 399.47 190.53C406.837 149.253 401.813 106.766 385.009 68.2368C420.144 103.635 443.922 148.358 453.4 196.871C462.877 245.384 457.639 295.557 438.332 341.181C415.069 391.252 375.657 432.431 326.172 458.374C276.686 484.316 219.872 493.582 164.487 484.742C161.379 471.872 161.31 458.475 164.286 445.574C167.262 432.673 173.204 420.609 181.658 410.303Z" fill="#0D4168"/>
<path d="M39.7649 423.595C35.1209 419.448 31.4297 414.38 28.9366 408.726C26.4434 403.073 25.2053 396.965 25.3043 390.806C26.2263 369.597 33.1073 349.049 45.1876 331.432C66.8783 301.302 100.318 283.578 134.662 269.4C168.684 256.188 201.364 239.87 232.27 220.66C280.171 188.757 309.995 146.22 312.707 92.1631C312.707 92.1631 316.322 39.8784 279.267 3.54492C286.773 5.41653 294.047 8.09112 300.958 11.5206C325.439 21.6962 348.037 35.7694 367.837 53.1711C372.235 57.0712 375.64 61.9272 377.779 67.35C396.446 108.502 400.354 154.639 388.866 198.247C377.379 241.855 351.172 280.365 314.514 307.505C291.92 325.229 265.71 336.749 241.308 350.928C216.906 365.107 191.6 380.172 174.428 403.213C164.508 415.343 157.69 429.624 154.545 444.864C152.235 457.167 152.235 469.78 154.545 482.083L102.126 460.815C79.5212 451.606 58.4899 439.054 39.7649 423.595Z" fill="#0D4168"/>
</svg>
